<?xml version="1.0" encoding="utf-8"?>
<!-- Generator: Adobe Illustrator 19.0.0, SVG Export Plug-In . SVG Version: 6.00 Build 0)  -->
<svg version="1.1" xmlns="http://www.w3.org/2000/svg" xmlns:xlink="http://www.w3.org/1999/xlink" x="0px" y="0px"
	 viewBox="0 0 800 800" style="enable-background:new 0 0 800 800;" xml:space="preserve">
<style type="text/css">
	.st0{fill:#FFFFFF;stroke:#000000;stroke-width:2;stroke-miterlimit:10;}
	.st1{font-family:'MyriadPro-Regular';}
	.st2{font-size:12px;}
	.st3{font-size:8px;}
	.st4{fill:none;stroke:#000000;stroke-width:2;stroke-miterlimit:10;}
	.st5{fill:none;stroke:#000000;stroke-miterlimit:10;}
</style>
<g id="Layer_1">
	<rect id="XMLID_1_" x="347.3" y="382" class="st0" width="105.5" height="43"/>
	<text id="XMLID_2_" transform="matrix(1 0 0 1 368 406.5)" class="st1 st2">Main Menu</text>
	<rect id="XMLID_3_" x="551.5" y="382" width="2" height="0"/>
	<text id="XMLID_143_" transform="matrix(1 0 0 1 299.5 373.5)"><tspan x="0" y="0" class="st1 st3">Select </tspan><tspan x="0" y="9.6" class="st1 st3">“Shift </tspan><tspan x="0" y="19.2" class="st1 st3">Preferences”</tspan></text>
	<text id="XMLID_149_" transform="matrix(1 0 0 1 292 416.5)" class="st1 st3">Select “Back”</text>
	<text id="XMLID_180_" transform="matrix(1 0 0 1 271 452.5)"><tspan x="0" y="0" class="st1 st3">Select</tspan><tspan x="0" y="9.6" class="st1 st3">“Availability”</tspan></text>
	<text id="XMLID_181_" transform="matrix(1 0 0 1 306.5 527)"><tspan x="0" y="0" class="st1 st3">Select</tspan><tspan x="0" y="9.6" class="st1 st3">“Back”</tspan></text>
	<text id="XMLID_182_" transform="matrix(1 0 0 1 143.5 594)"><tspan x="0" y="0" class="st1 st3">Select “Change</tspan><tspan x="0" y="9.6" class="st1 st3">Availability”</tspan></text>
	<text id="XMLID_183_" transform="matrix(1 0 0 1 245.5 594)"><tspan x="0" y="0" class="st1 st3">Select</tspan><tspan x="0" y="9.6" class="st1 st3">“Save and Close”</tspan><tspan x="0" y="19.2" class="st1 st3">or  “Cancel”</tspan></text>
	<text id="XMLID_184_" transform="matrix(1 0 0 1 373 456)"><tspan x="0" y="0" class="st1 st3">Select</tspan><tspan x="0" y="9.6" class="st1 st3">“Request</tspan><tspan x="0" y="19.2" class="st1 st3">Off”</tspan></text>
	<text id="XMLID_185_" transform="matrix(1 0 0 1 416 457)"><tspan x="0" y="0" class="st1 st3">Select</tspan><tspan x="0" y="9.6" class="st1 st3">“Back”</tspan></text>
	<text id="XMLID_186_" transform="matrix(1 0 0 1 456 524.5)" class="st1 st3">Select Day to Request</text>
	<text id="XMLID_187_" transform="matrix(1 0 0 1 505.5 469.5)" class="st1 st3">yes</text>
	<text id="XMLID_188_" transform="matrix(1 0 0 1 486 552.5)" class="st1 st3">no</text>
	<text id="XMLID_189_" transform="matrix(1 0 0 1 151.5 343.5)"><tspan x="0" y="0" class="st1 st3">Select “Update</tspan><tspan x="0" y="9.6" class="st1 st3">Preferences”</tspan></text>
	<text id="XMLID_190_" transform="matrix(1 0 0 1 253.5 343.5)"><tspan x="0" y="0" class="st1 st3">Select</tspan><tspan x="0" y="9.6" class="st1 st3">“Save and Close”</tspan><tspan x="0" y="19.2" class="st1 st3">or  “Cancel”</tspan></text>
</g>
<g id="Layer_4">
	<rect id="XMLID_8_" x="551.5" y="135" class="st4" width="95.5" height="48"/>
	<text id="XMLID_9_" transform="matrix(1 0 0 1 558 161)" class="st1 st2">Create Schedule</text>
	<text id="XMLID_58_" transform="matrix(1 0 0 1 460 405.5)" class="st1 st3">Select “View Schedule”</text>
	<text id="XMLID_120_" transform="matrix(1 0 0 1 589.5 230.5)" class="st1 st3">yes</text>
	<text id="XMLID_121_" transform="matrix(1 0 0 1 669 230)"><tspan x="0" y="0" class="st1 st3">Select </tspan><tspan x="0" y="9.6" class="st1 st3">“Save and Submit”</tspan></text>
	<text id="XMLID_122_" transform="matrix(1 0 0 1 516 248.5)"><tspan x="0" y="0" class="st1 st3">Select</tspan><tspan x="0" y="9.6" class="st1 st3">“Cancel”</tspan></text>
	<text id="XMLID_123_" transform="matrix(1 0 0 1 513 350)" class="st1 st3">no</text>
	<text id="XMLID_124_" transform="matrix(1 0 0 1 375 352.5)" class="st1 st3">yes</text>
</g>
<g id="Layer_5">
	<rect id="XMLID_30_" x="181" y="382" class="st4" width="105.5" height="43"/>
	<text id="XMLID_29_" transform="matrix(1 0 0 1 190.5 407.5)" class="st1 st2">Shift Preferences</text>
</g>
<g id="Layer_6">
	<rect id="XMLID_12_" x="181" y="262" class="st4" width="105.5" height="50.5"/>
	<text id="XMLID_13_" transform="matrix(1 0 0 1 184 288)" class="st1 st2">Change Preferences</text>
</g>
<g id="Layer_7">
	<rect id="XMLID_14_" x="342.5" y="512" class="st4" width="95.5" height="54.5"/>
	<text id="XMLID_15_" transform="matrix(1 0 0 1 360.5 543)" class="st1 st2">Request Off</text>
</g>
<g id="Layer_10">
	<rect id="XMLID_28_" x="548" y="512" class="st4" width="99" height="54.5"/>
	<text id="XMLID_27_" transform="matrix(1 0 0 1 553 535)"><tspan x="0" y="0" class="st1 st2">Available Request</tspan><tspan x="0" y="14.4" class="st1 st2">      Off for Day?</tspan></text>
</g>
<g id="Layer_8">
	<rect id="XMLID_16_" x="172" y="633.5" class="st4" width="105.5" height="52"/>
	<text id="XMLID_17_" transform="matrix(1 0 0 1 176.5 663.5)" class="st1 st2">Change Availability</text>
</g>
<g id="Layer_13">
	<g id="XMLID_6_">
		<g id="XMLID_37_">
			<line id="XMLID_40_" class="st5" x1="367.5" y1="183" x2="367.5" y2="256"/>
			<g id="XMLID_38_">
				<path id="XMLID_39_" d="M367.5,262c-1.1-2.8-2.9-6.4-4.8-8.5l4.8,1.7l4.8-1.7C370.4,255.6,368.6,259.2,367.5,262z"/>
			</g>
		</g>
	</g>
	<g id="XMLID_10_">
		<g id="XMLID_43_">
			<line id="XMLID_46_" class="st5" x1="411.5" y1="259.5" x2="411.5" y2="189"/>
			<g id="XMLID_44_">
				<path id="XMLID_45_" d="M411.5,183c1.1,2.8,2.9,6.4,4.8,8.5l-4.8-1.7l-4.8,1.7C408.6,189.4,410.4,185.8,411.5,183z"/>
			</g>
		</g>
	</g>
	<g id="XMLID_11_">
		<g id="XMLID_49_">
			<line id="XMLID_52_" class="st5" x1="371.5" y1="312.5" x2="371.5" y2="376"/>
			<g id="XMLID_50_">
				<path id="XMLID_51_" d="M371.5,382c-1.1-2.8-2.9-6.4-4.8-8.5l4.8,1.7l4.8-1.7C374.4,375.6,372.6,379.2,371.5,382z"/>
			</g>
		</g>
	</g>
	<g id="XMLID_26_">
		<g id="XMLID_61_">
			<line id="XMLID_64_" class="st5" x1="371.5" y1="425" x2="371.5" y2="506"/>
			<g id="XMLID_62_">
				<path id="XMLID_63_" d="M371.5,512c-1.1-2.8-2.9-6.4-4.8-8.5l4.8,1.7l4.8-1.7C374.4,505.6,372.6,509.2,371.5,512z"/>
			</g>
		</g>
	</g>
	<g id="XMLID_31_">
		<g id="XMLID_67_">
			<line id="XMLID_70_" class="st5" x1="411.5" y1="512" x2="411.5" y2="433"/>
			<g id="XMLID_68_">
				<path id="XMLID_69_" d="M411.5,427c1.1,2.8,2.9,6.4,4.8,8.5l-4.8-1.7l-4.8,1.7C408.6,433.4,410.4,429.8,411.5,427z"/>
			</g>
		</g>
	</g>
	<g id="XMLID_32_">
		<g id="XMLID_73_">
			<line id="XMLID_76_" class="st5" x1="438" y1="528" x2="542" y2="528"/>
			<g id="XMLID_74_">
				<path id="XMLID_75_" d="M548,528c-2.8,1.1-6.4,2.9-8.5,4.8l1.7-4.8l-1.7-4.8C541.6,525.1,545.2,526.9,548,528z"/>
			</g>
		</g>
	</g>
	<g id="XMLID_33_">
		<g id="XMLID_79_">
			<line id="XMLID_82_" class="st5" x1="548" y1="556" x2="444" y2="556"/>
			<g id="XMLID_80_">
				<path id="XMLID_81_" d="M438,556c2.8-1.1,6.4-2.9,8.5-4.8l-1.7,4.8l1.7,4.8C444.4,558.9,440.8,557.1,438,556z"/>
			</g>
		</g>
	</g>
	<g id="XMLID_34_">
		<g id="XMLID_85_">
			<line id="XMLID_88_" class="st5" x1="548" y1="512" x2="455" y2="429"/>
			<g id="XMLID_86_">
				<path id="XMLID_87_" d="M450.5,425c2.8,1.1,6.6,2.1,9.5,2.1l-4.4,2.4l-1.9,4.7C453.4,431.4,451.9,427.7,450.5,425z"/>
			</g>
		</g>
	</g>
	<g id="XMLID_35_">
		<g id="XMLID_91_">
			<line id="XMLID_94_" class="st5" x1="345" y1="394.5" x2="292.5" y2="394.5"/>
			<g id="XMLID_92_">
				<path id="XMLID_93_" d="M286.5,394.5c2.8-1.1,6.4-2.9,8.5-4.8l-1.7,4.8l1.7,4.8C292.9,397.4,289.3,395.6,286.5,394.5z"/>
			</g>
		</g>
	</g>
	<g id="XMLID_41_">
		<g id="XMLID_97_">
			<line id="XMLID_100_" class="st5" x1="286.5" y1="419" x2="339" y2="419"/>
			<g id="XMLID_98_">
				<path id="XMLID_99_" d="M345,419c-2.8,1.1-6.4,2.9-8.5,4.8l1.7-4.8l-1.7-4.8C338.6,416.1,342.2,417.9,345,419z"/>
			</g>
		</g>
	</g>
	<g id="XMLID_47_">
		<g id="XMLID_103_">
			<line id="XMLID_106_" class="st5" x1="202.5" y1="382" x2="202.5" y2="318.5"/>
			<g id="XMLID_104_">
				<path id="XMLID_105_" d="M202.5,312.5c1.1,2.8,2.9,6.4,4.8,8.5l-4.8-1.7l-4.8,1.7C199.6,318.9,201.4,315.3,202.5,312.5z"/>
			</g>
		</g>
	</g>
	<g id="XMLID_53_">
		<g id="XMLID_109_">
			<line id="XMLID_112_" class="st5" x1="252" y1="312.5" x2="252" y2="376"/>
			<g id="XMLID_110_">
				<path id="XMLID_111_" d="M252,382c-1.1-2.8-2.9-6.4-4.8-8.5l4.8,1.7l4.8-1.7C254.9,375.6,253.1,379.2,252,382z"/>
			</g>
		</g>
	</g>
	<g id="XMLID_59_">
		<g id="XMLID_115_">
			<line id="XMLID_118_" class="st5" x1="450.5" y1="395" x2="547.5" y2="395"/>
			<g id="XMLID_116_">
				<path id="XMLID_117_" d="M553.5,395c-2.8,1.1-6.4,2.9-8.5,4.8l1.7-4.8l-1.7-4.8C547.1,392.1,550.7,393.9,553.5,395z"/>
			</g>
		</g>
	</g>
	<g id="XMLID_65_">
		<g id="XMLID_156_">
			<line id="XMLID_179_" class="st5" x1="583" y1="382" x2="583" y2="318.5"/>
			<g id="XMLID_157_">
				<path id="XMLID_158_" d="M583,312.5c1.1,2.8,2.9,6.4,4.8,8.5l-4.8-1.7l-4.8,1.7C580.1,318.9,581.9,315.3,583,312.5z"/>
			</g>
		</g>
	</g>
	<g id="XMLID_71_">
		<g id="XMLID_127_">
			<line id="XMLID_130_" class="st5" x1="551.5" y1="312.5" x2="455.5" y2="378.6"/>
			<g id="XMLID_128_">
				<path id="XMLID_129_" d="M450.5,382c1.7-2.5,3.6-6,4.3-8.8l1.3,4.9l4.1,2.9C457.4,380.7,453.4,381.3,450.5,382z"/>
			</g>
		</g>
	</g>
	<g id="XMLID_77_">
		<g id="XMLID_133_">
			<line id="XMLID_136_" class="st5" x1="345" y1="425" x2="282.2" y2="507.2"/>
			<g id="XMLID_134_">
				<path id="XMLID_135_" d="M278.5,512c0.9-2.9,1.6-6.8,1.4-9.7l2.7,4.3l4.8,1.5C284.6,508.7,281.1,510.4,278.5,512z"/>
			</g>
		</g>
	</g>
	<g id="XMLID_83_">
		<g id="XMLID_139_">
			<line id="XMLID_142_" class="st5" x1="196.5" y1="566.5" x2="196.5" y2="627.5"/>
			<g id="XMLID_140_">
				<path id="XMLID_141_" d="M196.5,633.5c-1.1-2.8-2.9-6.4-4.8-8.5l4.8,1.7l4.8-1.7C199.4,627.1,197.6,630.7,196.5,633.5z"/>
			</g>
		</g>
	</g>
	<g id="XMLID_89_">
		<g id="XMLID_145_">
			<line id="XMLID_148_" class="st5" x1="242.5" y1="633.5" x2="242.5" y2="572.5"/>
			<g id="XMLID_146_">
				<path id="XMLID_147_" d="M242.5,566.5c1.1,2.8,2.9,6.4,4.8,8.5l-4.8-1.7l-4.8,1.7C239.6,572.9,241.4,569.3,242.5,566.5z"/>
			</g>
		</g>
	</g>
	<g id="XMLID_95_">
		<g id="XMLID_151_">
			<line id="XMLID_154_" class="st5" x1="278.5" y1="566.5" x2="353.6" y2="430.3"/>
			<g id="XMLID_152_">
				<path id="XMLID_153_" d="M356.5,425c-0.4,3-0.6,6.9,0,9.8l-3.3-3.8l-5-0.8C350.9,429.2,354.2,427,356.5,425z"/>
			</g>
		</g>
	</g>
	<g id="XMLID_101_">
		<g id="XMLID_161_">
			<line id="XMLID_169_" class="st5" x1="583" y1="262" x2="583" y2="189"/>
			<g id="XMLID_162_">
				<path id="XMLID_163_" d="M583,183c1.1,2.8,2.9,6.4,4.8,8.5l-4.8-1.7l-4.8,1.7C580.1,189.4,581.9,185.8,583,183z"/>
			</g>
		</g>
	</g>
	<line id="XMLID_107_" class="st5" x1="647" y1="171.5" x2="659.5" y2="171.5"/>
	<line id="XMLID_113_" class="st5" x1="659.5" y1="171.5" x2="659.5" y2="394.5"/>
	<g id="XMLID_119_">
		<g id="XMLID_165_">
			<line id="XMLID_168_" class="st5" x1="659.5" y1="394.5" x2="653" y2="394.5"/>
			<g id="XMLID_166_">
				<path id="XMLID_167_" d="M647,394.5c2.8-1.1,6.4-2.9,8.5-4.8l-1.7,4.8l1.7,4.8C653.4,397.4,649.8,395.6,647,394.5z"/>
			</g>
		</g>
	</g>
	<g id="XMLID_125_">
		<g id="XMLID_171_">
			<line id="XMLID_174_" class="st5" x1="551.5" y1="183" x2="434.1" y2="376.8"/>
			<g id="XMLID_172_">
				<path id="XMLID_173_" d="M431,382c0.6-3,0.9-6.9,0.4-9.8l3.2,3.9l5,1C436.7,378,433.4,380.1,431,382z"/>
			</g>
		</g>
	</g>
	<line id="XMLID_21_" class="st5" x1="343.8" y1="385" x2="331.5" y2="385"/>
	<line id="XMLID_54_" class="st5" x1="331.5" y1="385" x2="331.5" y2="171.5"/>
	<g id="XMLID_55_">
		<g id="XMLID_175_">
			<line id="XMLID_178_" class="st5" x1="331.5" y1="171.5" x2="337.7" y2="171.5"/>
			<g id="XMLID_176_">
				<path id="XMLID_177_" d="M343.8,171.5c-2.8,1.1-6.4,2.9-8.5,4.8l1.7-4.8l-1.7-4.8C337.4,168.6,340.9,170.4,343.8,171.5z"/>
			</g>
		</g>
	</g>
</g>
<g id="Layer_9">
	<rect id="XMLID_18_" x="345" y="262" class="st4" width="97.5" height="50.5"/>
	<text id="XMLID_19_" transform="matrix(1 0 0 1 365 290.25)" class="st1 st2">Login Valid?</text>
</g>
<g id="Layer_3">
	<rect id="XMLID_20_" x="173" y="512" class="st4" width="105.5" height="54.5"/>
	<text id="XMLID_7_" transform="matrix(1 0 0 1 196.5 543)" class="st1 st2">Availability</text>
	<text id="XMLID_131_" transform="matrix(1 0 0 1 370.5 221.5)" class="st1 st3">Login</text>
	<text id="XMLID_137_" transform="matrix(1 0 0 1 417 222.5)" class="st1 st3">no</text>
	<text id="XMLID_56_" transform="matrix(1 0 0 1 292.5 221)" class="st1 st3">Logout</text>
	<text id="XMLID_57_" transform="matrix(1 0 0 1 586 341.5)"><tspan x="0" y="0" class="st1 st3">Select</tspan><tspan x="0" y="9.6" class="st1 st3">“Create</tspan><tspan x="0" y="19.2" class="st1 st3">Schedule”</tspan></text>
</g>
<g id="Layer_2">
	<rect id="XMLID_4_" x="553.5" y="382" class="st4" width="93.5" height="43"/>
	<text id="XMLID_5_" transform="matrix(1 0 0 1 574.5 407)" class="st1 st2">Schedule</text>
</g>
<g id="Layer_11">
	<rect id="XMLID_22_" x="551.5" y="262" class="st4" width="95.5" height="50.5"/>
	<text id="XMLID_23_" transform="matrix(1 0 0 1 570.5 282)"><tspan x="0" y="0" class="st1 st2">    Correct </tspan><tspan x="0" y="14.4" class="st1 st2">Permissions?</tspan></text>
</g>
<g id="Layer_12">
	<rect id="XMLID_24_" x="343.8" y="135" class="st4" width="100" height="48"/>
	<text id="XMLID_25_" transform="matrix(1 0 0 1 363.75 160.5)" class="st1 st2">Login Page</text>
</g>
</svg>
